<svg xmlns="http://www.w3.org/2000/svg" viewBox="0 0 250 350" width="250" height="350"><defs><symbol id="suit-S" viewBox="-50 -50 100 100"><path d="M0,-47C6,-36 20,-26 32,-16C44,-6 49,4 48,14C47,27 37,34 26,34C16,34 8,29 3,22C4,32 9,41 18,47L-18,47C-9,41 -4,32 -3,22C-8,29 -16,34 -26,34C-37,34 -47,27 -48,14C-49,4 -44,-6 -32,-16C-20,-26 -6,-36 0,-47Z" fill="#1A1A1A"/></symbol></defs><rect x="0.5" y="0.5" width="249" height="349" rx="11" fill="#FFFFFF" stroke="#D9D9D9" stroke-width="1" vector-effect="non-scaling-stroke"/><use href="#suit-S" x="58.5" y="45.5" width="45" height="45"/><use href="#suit-S" x="146.5" y="45.5" width="45" height="45"/><use href="#suit-S" x="58.5" y="152.5" width="45" height="45"/><use href="#suit-S" x="146.5" y="152.5" width="45" height="45"/><use href="#suit-S" x="58.5" y="259.5" width="45" height="45" transform="rotate(180 81 282)"/><use href="#suit-S" x="146.5" y="259.5" width="45" height="45" transform="rotate(180 169 282)"/><text font-family="'Times New Roman', Times, 'Liberation Serif', 'Nimbus Roman', Georgia, serif" font-weight="700" font-size="54" text-anchor="middle" fill="#1A1A1A" x="28" y="58">6</text><use href="#suit-S" x="13" y="67" width="30" height="30"/><g transform="rotate(180 125 175)"><text font-family="'Times New Roman', Times, 'Liberation Serif', 'Nimbus Roman', Georgia, serif" font-weight="700" font-size="54" text-anchor="middle" fill="#1A1A1A" x="28" y="58">6</text><use href="#suit-S" x="13" y="67" width="30" height="30"/></g></svg>
