<svg xmlns="http://www.w3.org/2000/svg" viewBox="0 0 250 350" width="250" height="350"><rect x="0.5" y="0.5" width="249" height="349" rx="11" fill="#FFFFFF" stroke="#D9D9D9" stroke-width="1" vector-effect="non-scaling-stroke"/><rect x="12" y="12" width="226" height="326" rx="6" fill="#1F3A93"/><rect x="16" y="16" width="218" height="318" rx="3" fill="none" stroke="#FFFFFF" stroke-width="1.2"/><path d="M19,311.9L32.2,331M19,292.6L45.5,331M19,273.2L58.9,331M19,253.8L72.2,331M19,234.4L85.6,331M19,215.1L99,331M19,195.7L112.3,331M19,176.3L125.7,331M19,156.9L139.1,331M19,137.6L152.4,331M19,118.2L165.8,331M19,98.8L179.1,331M19,79.4L192.5,331M19,60.1L205.9,331M19,40.7L219.2,331M19,21.3L231,328.7M231,309.3L30.8,19M231,289.9L44.1,19M231,270.6L57.5,19M231,251.2L70.9,19M231,231.8L84.2,19M231,212.4L97.6,19M231,193.1L110.9,19M231,173.7L124.3,19M231,154.3L137.7,19M231,134.9L151,19M231,115.6L164.4,19M231,96.2L177.8,19M231,76.8L191.1,19M231,57.4L204.5,19M231,38.1L217.8,19M19,38.1L32.2,19M19,57.4L45.5,19M19,76.8L58.9,19M19,96.2L72.2,19M19,115.6L85.6,19M19,134.9L99,19M19,154.3L112.3,19M19,173.7L125.7,19M19,193.1L139.1,19M19,212.4L152.4,19M19,231.8L165.8,19M19,251.2L179.1,19M19,270.6L192.5,19M19,289.9L205.9,19M19,309.3L219.2,19M19,328.7L231,21.3M231,40.7L30.8,331M231,60.1L44.1,331M231,79.4L57.5,331M231,98.8L70.9,331M231,118.2L84.2,331M231,137.6L97.6,331M231,156.9L110.9,331M231,176.3L124.3,331M231,195.7L137.7,331M231,215.1L151,331M231,234.4L164.4,331M231,253.8L177.8,331M231,273.2L191.1,331M231,292.6L204.5,331M231,311.9L217.8,331" stroke="#FFFFFF" stroke-width="1.1" fill="none"/><path d="M19,321.6L25.5,331M19,302.2L38.8,331M19,282.9L52.2,331M19,263.5L65.6,331M19,244.1L78.9,331M19,224.7L92.3,331M19,205.4L105.6,331M19,186L119,331M19,166.6L132.4,331M19,147.2L145.7,331M19,127.9L159.1,331M19,108.5L172.5,331M19,89.1L185.8,331M19,69.7L199.2,331M19,50.4L212.5,331M19,31L225.9,331M231,319L24.1,19M231,299.6L37.5,19M231,280.3L50.8,19M231,260.9L64.2,19M231,241.5L77.5,19M231,222.1L90.9,19M231,202.8L104.3,19M231,183.4L117.6,19M231,164L131,19M231,144.6L144.4,19M231,125.3L157.7,19M231,105.9L171.1,19M231,86.5L184.4,19M231,67.1L197.8,19M231,47.8L211.2,19M231,28.4L224.5,19M19,28.4L25.5,19M19,47.8L38.8,19M19,67.1L52.2,19M19,86.5L65.6,19M19,105.9L78.9,19M19,125.3L92.3,19M19,144.6L105.6,19M19,164L119,19M19,183.4L132.4,19M19,202.8L145.7,19M19,222.1L159.1,19M19,241.5L172.5,19M19,260.9L185.8,19M19,280.3L199.2,19M19,299.6L212.5,19M19,319L225.9,19M231,31L24.1,331M231,50.4L37.5,331M231,69.7L50.8,331M231,89.1L64.2,331M231,108.5L77.5,331M231,127.9L90.9,331M231,147.2L104.3,331M231,166.6L117.6,331M231,186L131,331M231,205.4L144.4,331M231,224.7L157.7,331M231,244.1L171.1,331M231,263.5L184.4,331M231,282.9L197.8,331M231,302.2L211.2,331M231,321.6L224.5,331" stroke="#FFFFFF" stroke-width="0.4" fill="none"/><ellipse cx="125" cy="175" rx="52" ry="70" fill="#1F3A93" stroke="#FFFFFF" stroke-width="3"/><ellipse cx="125" cy="175" rx="46" ry="64" fill="none" stroke="#FFFFFF" stroke-width="0.8"/><g fill="none" stroke="#FFFFFF" stroke-width="0.7"><ellipse cx="125" cy="175" rx="40" ry="13" transform="rotate(0 125 175)"/><ellipse cx="125" cy="175" rx="40" ry="13" transform="rotate(10 125 175)"/><ellipse cx="125" cy="175" rx="40" ry="13" transform="rotate(20 125 175)"/><ellipse cx="125" cy="175" rx="40" ry="13" transform="rotate(30 125 175)"/><ellipse cx="125" cy="175" rx="40" ry="13" transform="rotate(40 125 175)"/><ellipse cx="125" cy="175" rx="40" ry="13" transform="rotate(50 125 175)"/><ellipse cx="125" cy="175" rx="40" ry="13" transform="rotate(60 125 175)"/><ellipse cx="125" cy="175" rx="40" ry="13" transform="rotate(70 125 175)"/><ellipse cx="125" cy="175" rx="40" ry="13" transform="rotate(80 125 175)"/><ellipse cx="125" cy="175" rx="40" ry="13" transform="rotate(90 125 175)"/><ellipse cx="125" cy="175" rx="40" ry="13" transform="rotate(100 125 175)"/><ellipse cx="125" cy="175" rx="40" ry="13" transform="rotate(110 125 175)"/><ellipse cx="125" cy="175" rx="40" ry="13" transform="rotate(120 125 175)"/><ellipse cx="125" cy="175" rx="40" ry="13" transform="rotate(130 125 175)"/><ellipse cx="125" cy="175" rx="40" ry="13" transform="rotate(140 125 175)"/><ellipse cx="125" cy="175" rx="40" ry="13" transform="rotate(150 125 175)"/><ellipse cx="125" cy="175" rx="40" ry="13" transform="rotate(160 125 175)"/><ellipse cx="125" cy="175" rx="40" ry="13" transform="rotate(170 125 175)"/></g><g fill="none" stroke="#FFFFFF" stroke-width="0.7"><ellipse cx="125" cy="175" rx="22" ry="7" transform="rotate(0 125 175)"/><ellipse cx="125" cy="175" rx="22" ry="7" transform="rotate(15 125 175)"/><ellipse cx="125" cy="175" rx="22" ry="7" transform="rotate(30 125 175)"/><ellipse cx="125" cy="175" rx="22" ry="7" transform="rotate(45 125 175)"/><ellipse cx="125" cy="175" rx="22" ry="7" transform="rotate(60 125 175)"/><ellipse cx="125" cy="175" rx="22" ry="7" transform="rotate(75 125 175)"/><ellipse cx="125" cy="175" rx="22" ry="7" transform="rotate(90 125 175)"/><ellipse cx="125" cy="175" rx="22" ry="7" transform="rotate(105 125 175)"/><ellipse cx="125" cy="175" rx="22" ry="7" transform="rotate(120 125 175)"/><ellipse cx="125" cy="175" rx="22" ry="7" transform="rotate(135 125 175)"/><ellipse cx="125" cy="175" rx="22" ry="7" transform="rotate(150 125 175)"/><ellipse cx="125" cy="175" rx="22" ry="7" transform="rotate(165 125 175)"/></g><ellipse cx="125" cy="129" rx="6" ry="8" fill="none" stroke="#FFFFFF" stroke-width="0.9"/><ellipse cx="125" cy="221" rx="6" ry="8" fill="none" stroke="#FFFFFF" stroke-width="0.9"/><circle cx="125" cy="175" r="3.5" fill="#FFFFFF"/><circle cx="33" cy="33" r="13" fill="#1F3A93" stroke="#FFFFFF" stroke-width="1.4"/><g fill="none" stroke="#FFFFFF" stroke-width="0.7"><ellipse cx="33" cy="33" rx="10" ry="3.4" transform="rotate(0 33 33)"/><ellipse cx="33" cy="33" rx="10" ry="3.4" transform="rotate(30 33 33)"/><ellipse cx="33" cy="33" rx="10" ry="3.4" transform="rotate(60 33 33)"/><ellipse cx="33" cy="33" rx="10" ry="3.4" transform="rotate(90 33 33)"/><ellipse cx="33" cy="33" rx="10" ry="3.4" transform="rotate(120 33 33)"/><ellipse cx="33" cy="33" rx="10" ry="3.4" transform="rotate(150 33 33)"/></g><circle cx="33" cy="33" r="1.8" fill="#FFFFFF"/><circle cx="217" cy="33" r="13" fill="#1F3A93" stroke="#FFFFFF" stroke-width="1.4"/><g fill="none" stroke="#FFFFFF" stroke-width="0.7"><ellipse cx="217" cy="33" rx="10" ry="3.4" transform="rotate(0 217 33)"/><ellipse cx="217" cy="33" rx="10" ry="3.4" transform="rotate(30 217 33)"/><ellipse cx="217" cy="33" rx="10" ry="3.4" transform="rotate(60 217 33)"/><ellipse cx="217" cy="33" rx="10" ry="3.4" transform="rotate(90 217 33)"/><ellipse cx="217" cy="33" rx="10" ry="3.4" transform="rotate(120 217 33)"/><ellipse cx="217" cy="33" rx="10" ry="3.4" transform="rotate(150 217 33)"/></g><circle cx="217" cy="33" r="1.8" fill="#FFFFFF"/><circle cx="33" cy="317" r="13" fill="#1F3A93" stroke="#FFFFFF" stroke-width="1.4"/><g fill="none" stroke="#FFFFFF" stroke-width="0.7"><ellipse cx="33" cy="317" rx="10" ry="3.4" transform="rotate(0 33 317)"/><ellipse cx="33" cy="317" rx="10" ry="3.4" transform="rotate(30 33 317)"/><ellipse cx="33" cy="317" rx="10" ry="3.4" transform="rotate(60 33 317)"/><ellipse cx="33" cy="317" rx="10" ry="3.4" transform="rotate(90 33 317)"/><ellipse cx="33" cy="317" rx="10" ry="3.4" transform="rotate(120 33 317)"/><ellipse cx="33" cy="317" rx="10" ry="3.4" transform="rotate(150 33 317)"/></g><circle cx="33" cy="317" r="1.8" fill="#FFFFFF"/><circle cx="217" cy="317" r="13" fill="#1F3A93" stroke="#FFFFFF" stroke-width="1.4"/><g fill="none" stroke="#FFFFFF" stroke-width="0.7"><ellipse cx="217" cy="317" rx="10" ry="3.4" transform="rotate(0 217 317)"/><ellipse cx="217" cy="317" rx="10" ry="3.4" transform="rotate(30 217 317)"/><ellipse cx="217" cy="317" rx="10" ry="3.4" transform="rotate(60 217 317)"/><ellipse cx="217" cy="317" rx="10" ry="3.4" transform="rotate(90 217 317)"/><ellipse cx="217" cy="317" rx="10" ry="3.4" transform="rotate(120 217 317)"/><ellipse cx="217" cy="317" rx="10" ry="3.4" transform="rotate(150 217 317)"/></g><circle cx="217" cy="317" r="1.8" fill="#FFFFFF"/></svg>
